<?xml version="1.0" encoding="UTF-8"?>
<svg xmlns="http://www.w3.org/2000/svg" viewBox="0 0 1149 750" width="1149" height="750">
  <!--
    Book of Verse - Cover Template
    Scale: 1 inch = 72 pixels (standard print resolution reference)
    Total spread: 15.955" × 10.625" (with bleed)
    Trim: 15.33" × 10" (back 7" + spine 1.33" + front 7")
    Spine: 469 pages × 0.0025" + 0.16" boards = 1.33"
  -->

  <!-- Background (bleed area) -->
  <rect x="0" y="0" width="1139" height="750" fill="#e8e8e8"/>

  <!-- Trim area (actual cover) -->
  <rect x="22" y="22" width="1104" height="720" fill="#111111" stroke="#333" stroke-width="1"/>

  <!-- Back Cover -->
  <rect x="22" y="22" width="504" height="720" fill="#111111" stroke="#666" stroke-width="0.5" stroke-dasharray="4,4"/>

  <!-- Spine (1.33" = 96px at 72dpi) -->
  <rect x="526" y="22" width="96" height="720" fill="#080808" stroke="#666" stroke-width="0.5"/>

  <!-- Front Cover -->
  <rect x="622" y="22" width="504" height="720" fill="#111111" stroke="#666" stroke-width="0.5" stroke-dasharray="4,4"/>

  <!-- Safety margins (0.5" = 36px from trim) -->
  <rect x="58" y="58" width="432" height="648" fill="none" stroke="#ff6b6b" stroke-width="0.5" stroke-dasharray="2,2"/>
  <rect x="658" y="58" width="432" height="648" fill="none" stroke="#ff6b6b" stroke-width="0.5" stroke-dasharray="2,2"/>

  <!-- Spine text margins (0.125" = 9px from spine edges) -->
  <rect x="535" y="31" width="78" height="702" fill="none" stroke="#ff6b6b" stroke-width="0.5" stroke-dasharray="2,2"/>

  <!-- FRONT COVER ELEMENTS -->

  <!-- Verse V emblem (silver foil, ~180px = 2.5" at 72dpi) -->
  <g transform="translate(784, 190) scale(1.8)">
    <path d="M 0,0 L 22,0 L 53,62 L 78,14 L 60,0 L 100,0 L 50,100 Z"
          fill="#c0c0c0"/>
  </g>

  <!-- Title -->
  <text x="874" y="450" text-anchor="middle" fill="#c0c0c0" font-family="Georgia, 'Times New Roman', serif" font-size="36" font-weight="bold" letter-spacing="3">BOOK OF VERSE</text>

  <!-- Subtitle -->
  <text x="874" y="490" text-anchor="middle" fill="#c0c0c0" opacity="0.8" font-family="Arial, Helvetica, sans-serif" font-size="16" font-style="italic">The Verse Programming Language</text>

  <!-- SPINE ELEMENTS -->

  <!-- Spine V emblem (silver foil, top of spine, ~50px = 0.7" at 72dpi) -->
  <g transform="translate(549, 60) scale(0.5)">
    <path d="M 0,0 L 22,0 L 53,62 L 78,14 L 60,0 L 100,0 L 50,100 Z"
          fill="#c0c0c0"/>
  </g>

  <!-- Spine title (rotated, centered on spine) -->
  <g transform="translate(574, 382)">
    <text transform="rotate(90)" x="0" y="0" text-anchor="middle" fill="#c0c0c0" font-family="Georgia, 'Times New Roman', serif" font-size="16" font-weight="bold" letter-spacing="2">BOOK OF VERSE</text>
  </g>

  <!-- Spine V emblem (silver foil, bottom of spine, ~50px = 0.7" at 72dpi) -->
  <g transform="translate(549, 654) scale(0.5)">
    <path d="M 0,0 L 22,0 L 53,62 L 78,14 L 60,0 L 100,0 L 50,100 Z"
          fill="#c0c0c0"/>
  </g>

  <!-- Raised bands (decorative, ultra-premium edition) -->
  <rect x="526" y="139" width="96" height="6" fill="#000000" opacity="0.6"/>
  <rect x="526" y="259" width="96" height="6" fill="#000000" opacity="0.6"/>
  <rect x="526" y="379" width="96" height="6" fill="#000000" opacity="0.6"/>
  <rect x="526" y="499" width="96" height="6" fill="#000000" opacity="0.6"/>
  <rect x="526" y="619" width="96" height="6" fill="#000000" opacity="0.6"/>

  <!-- BACK COVER -->
  <text x="274" y="360" text-anchor="middle" fill="#888" font-family="Arial, sans-serif" font-size="14">BACK COVER</text>
  <text x="274" y="385" text-anchor="middle" fill="#666" font-family="Arial, sans-serif" font-size="11">(description or blind deboss pattern)</text>

  <!-- DIMENSION LABELS -->

  <!-- Top dimensions -->
  <line x1="22" y1="10" x2="526" y2="10" stroke="#333" stroke-width="1"/>
  <text x="274" y="8" text-anchor="middle" fill="#333" font-family="Arial, sans-serif" font-size="10">7" (Back Cover)</text>

  <line x1="526" y1="10" x2="622" y2="10" stroke="#333" stroke-width="1"/>
  <text x="574" y="8" text-anchor="middle" fill="#333" font-family="Arial, sans-serif" font-size="10">1.33" (Spine)</text>

  <line x1="622" y1="10" x2="1126" y2="10" stroke="#333" stroke-width="1"/>
  <text x="874" y="8" text-anchor="middle" fill="#333" font-family="Arial, sans-serif" font-size="10">7" (Front Cover)</text>

  <!-- Side dimension -->
  <line x1="1135" y1="22" x2="1135" y2="742" stroke="#333" stroke-width="1"/>
  <text x="1142" y="382" text-anchor="start" fill="#333" font-family="Arial, sans-serif" font-size="10" transform="rotate(90, 1142, 382)">10" Height</text>

  <!-- Bleed labels -->
  <text x="11" y="15" fill="#999" font-family="Arial, sans-serif" font-size="8">BLEED</text>
  <text x="11" y="745" fill="#999" font-family="Arial, sans-serif" font-size="8">0.3125"</text>

  <!-- Legend -->
  <rect x="22" y="755" width="200" height="60" fill="white" stroke="#ccc"/>
  <text x="30" y="770" fill="#333" font-family="Arial, sans-serif" font-size="10" font-weight="bold">LEGEND:</text>
  <line x1="30" y1="782" x2="50" y2="782" stroke="#ff6b6b" stroke-width="1" stroke-dasharray="2,2"/>
  <text x="55" y="785" fill="#333" font-family="Arial, sans-serif" font-size="9">Safety margin (0.5")</text>
  <rect x="30" y="792" width="20" height="10" fill="#c0c0c0"/>
  <text x="55" y="800" fill="#333" font-family="Arial, sans-serif" font-size="9">Silver foil elements</text>

</svg>
