<?xml version="1.0" encoding="UTF-8"?>
<svg xmlns="http://www.w3.org/2000/svg" viewBox="0 0 1139 750" width="1139" height="750">
  <!--
    Book of Verse - Cover Template
    Scale: 1 inch = 72 pixels (standard print resolution reference)
    Total spread: 15.825" × 10.625" (with bleed)
    Trim: 15.2" × 10" (back 7" + spine 1.2" + front 7")
  -->

  <!-- Background (bleed area) -->
  <rect x="0" y="0" width="1139" height="750" fill="#e8e8e8"/>

  <!-- Trim area (actual cover) -->
  <rect x="22" y="22" width="1094" height="720" fill="#1a2744" stroke="#333" stroke-width="1"/>

  <!-- Back Cover -->
  <rect x="22" y="22" width="504" height="720" fill="#1a2744" stroke="#666" stroke-width="0.5" stroke-dasharray="4,4"/>

  <!-- Spine -->
  <rect x="526" y="22" width="86" height="720" fill="#152035" stroke="#666" stroke-width="0.5"/>

  <!-- Front Cover -->
  <rect x="612" y="22" width="504" height="720" fill="#1a2744" stroke="#666" stroke-width="0.5" stroke-dasharray="4,4"/>

  <!-- Safety margins (0.5" = 36px from trim) -->
  <rect x="58" y="58" width="432" height="648" fill="none" stroke="#ff6b6b" stroke-width="0.5" stroke-dasharray="2,2"/>
  <rect x="648" y="58" width="432" height="648" fill="none" stroke="#ff6b6b" stroke-width="0.5" stroke-dasharray="2,2"/>

  <!-- Spine text margins -->
  <rect x="535" y="31" width="68" height="702" fill="none" stroke="#ff6b6b" stroke-width="0.5" stroke-dasharray="2,2"/>

  <!-- FRONT COVER ELEMENTS -->

  <!-- Verse V emblem (gold foil, ~180px = 2.5" at 72dpi) -->
  <g transform="translate(774, 190) scale(1.8)">
    <path d="M 0,0 L 22,0 L 53,62 L 78,14 L 60,0 L 100,0 L 50,100 Z"
          fill="#d4af37"/>
  </g>

  <!-- Title -->
  <text x="864" y="450" text-anchor="middle" fill="#d4af37" font-family="Georgia, serif" font-size="36" font-weight="bold">BOOK OF VERSE</text>
  <text x="864" y="445" text-anchor="middle" fill="none" stroke="#d4af37" stroke-width="0.5" font-family="Georgia, serif" font-size="36" font-weight="bold">BOOK OF VERSE</text>

  <!-- Subtitle -->
  <text x="864" y="490" text-anchor="middle" fill="#c0c0c0" font-family="Arial, sans-serif" font-size="16" font-style="italic">The Verse Programming Language</text>

  <!-- SPINE ELEMENTS -->

  <!-- Spine title (rotated) -->
  <g transform="translate(569, 200)">
    <text transform="rotate(90)" x="0" y="0" fill="#d4af37" font-family="Georgia, serif" font-size="18" font-weight="bold">BOOK OF VERSE</text>
  </g>

  <!-- Spine author -->
  <g transform="translate(569, 520)">
    <text transform="rotate(90)" x="0" y="0" fill="#d4af37" font-family="Arial, sans-serif" font-size="12">JAN VITEK</text>
  </g>

  <!-- Spine V emblem (gold foil, ~50px = 0.7" at 72dpi) -->
  <g transform="translate(544, 655) scale(0.5)">
    <path d="M 0,0 L 22,0 L 53,62 L 78,14 L 60,0 L 100,0 L 50,100 Z"
          fill="#d4af37"/>
  </g>

  <!-- Raised bands (decorative) -->
  <rect x="526" y="100" width="86" height="6" fill="#0f1825" opacity="0.5"/>
  <rect x="526" y="220" width="86" height="6" fill="#0f1825" opacity="0.5"/>
  <rect x="526" y="340" width="86" height="6" fill="#0f1825" opacity="0.5"/>
  <rect x="526" y="460" width="86" height="6" fill="#0f1825" opacity="0.5"/>
  <rect x="526" y="580" width="86" height="6" fill="#0f1825" opacity="0.5"/>

  <!-- BACK COVER -->
  <text x="274" y="360" text-anchor="middle" fill="#888" font-family="Arial, sans-serif" font-size="14">BACK COVER</text>
  <text x="274" y="385" text-anchor="middle" fill="#666" font-family="Arial, sans-serif" font-size="11">(description or blind deboss pattern)</text>

  <!-- DIMENSION LABELS -->

  <!-- Top dimensions -->
  <line x1="22" y1="10" x2="526" y2="10" stroke="#333" stroke-width="1"/>
  <text x="274" y="8" text-anchor="middle" fill="#333" font-family="Arial, sans-serif" font-size="10">7" (Back Cover)</text>

  <line x1="526" y1="10" x2="612" y2="10" stroke="#333" stroke-width="1"/>
  <text x="569" y="8" text-anchor="middle" fill="#333" font-family="Arial, sans-serif" font-size="10">1.2" (Spine)</text>

  <line x1="612" y1="10" x2="1116" y2="10" stroke="#333" stroke-width="1"/>
  <text x="864" y="8" text-anchor="middle" fill="#333" font-family="Arial, sans-serif" font-size="10">7" (Front Cover)</text>

  <!-- Side dimension -->
  <line x1="1125" y1="22" x2="1125" y2="742" stroke="#333" stroke-width="1"/>
  <text x="1132" y="382" text-anchor="start" fill="#333" font-family="Arial, sans-serif" font-size="10" transform="rotate(90, 1132, 382)">10" Height</text>

  <!-- Bleed labels -->
  <text x="11" y="15" fill="#999" font-family="Arial, sans-serif" font-size="8">BLEED</text>
  <text x="11" y="745" fill="#999" font-family="Arial, sans-serif" font-size="8">0.3125"</text>

  <!-- Legend -->
  <rect x="22" y="755" width="200" height="60" fill="white" stroke="#ccc"/>
  <text x="30" y="770" fill="#333" font-family="Arial, sans-serif" font-size="10" font-weight="bold">LEGEND:</text>
  <line x1="30" y1="782" x2="50" y2="782" stroke="#ff6b6b" stroke-width="1" stroke-dasharray="2,2"/>
  <text x="55" y="785" fill="#333" font-family="Arial, sans-serif" font-size="9">Safety margin (0.5")</text>
  <rect x="30" y="792" width="20" height="10" fill="#d4af37"/>
  <text x="55" y="800" fill="#333" font-family="Arial, sans-serif" font-size="9">Gold foil elements</text>

</svg>
