<?xml version="1.0" encoding="UTF-8"?>
<!--
  FOIL STAMPING DIE ARTWORK
  Element: "BOOK OF VERSE" title — large format
  Used on: Book front cover, Slipcase front face
  Foil: Silver gloss (single color)

  Specifications:
    - Solid black on white (black = stamp area)
    - All text converted to outlines (vector paths, no live fonts)
    - Width: ~6.6" at 100% actual size
    - Letter height: ~0.67" (~48pt equivalent)
    - Minimum stroke widths well above 0.75mm for textured substrate
    - Letter spacing: tracking +3
-->
<svg xmlns="http://www.w3.org/2000/svg"
     width="6.611in" height="1.222in"
     viewBox="0 0 476 88">
  <rect width="476" height="88" fill="white"/>
  <!-- B -->
  <path d="M 20.0,20.0 L 20.0,68.0 L 41.0,68.0 Q 53.0,68.0 53.0,59.0 Q 53.0,50.0 42.8,48.8 L 42.8,48.2 Q 51.2,47.0 51.2,39.2 Q 51.2,29.0 41.0,29.0 L 41.0,20.0 Z M 27.2,27.2 L 27.2,41.6 L 39.2,41.6 Q 44.0,41.6 44.0,34.4 Q 44.0,27.2 39.2,27.2 Z M 27.2,48.8 L 27.2,60.8 L 39.8,60.8 Q 45.8,60.8 45.8,54.8 Q 45.8,48.8 39.8,48.8 Z" fill="black"/>
  <!-- O -->
  <path d="M 75.2,20.0 Q 57.2,20.0 57.2,44.0 Q 57.2,68.0 75.2,68.0 Q 93.2,68.0 93.2,44.0 Q 93.2,20.0 75.2,20.0 Z M 75.2,27.2 Q 86.0,27.2 86.0,44.0 Q 86.0,60.8 75.2,60.8 Q 64.4,60.8 64.4,44.0 Q 64.4,27.2 75.2,27.2 Z" fill="black"/>
  <!-- O -->
  <path d="M 114.8,20.0 Q 96.8,20.0 96.8,44.0 Q 96.8,68.0 114.8,68.0 Q 132.8,68.0 132.8,44.0 Q 132.8,20.0 114.8,20.0 Z M 114.8,27.2 Q 125.6,27.2 125.6,44.0 Q 125.6,60.8 114.8,60.8 Q 104.0,60.8 104.0,44.0 Q 104.0,27.2 114.8,27.2 Z" fill="black"/>
  <!-- K -->
  <path d="M 136.4,20.0 L 136.4,68.0 L 143.6,68.0 L 143.6,48.8 L 159.2,68.0 L 168.8,68.0 L 151.4,46.4 L 167.6,20.0 L 158.0,20.0 L 143.6,41.6 L 143.6,20.0 Z" fill="black"/>
  <!-- (space) -->
  <!-- O -->
  <path d="M 208.4,20.0 Q 190.4,20.0 190.4,44.0 Q 190.4,68.0 208.4,68.0 Q 226.4,68.0 226.4,44.0 Q 226.4,20.0 208.4,20.0 Z M 208.4,27.2 Q 219.2,27.2 219.2,44.0 Q 219.2,60.8 208.4,60.8 Q 197.6,60.8 197.6,44.0 Q 197.6,27.2 208.4,27.2 Z" fill="black"/>
  <!-- F -->
  <path d="M 230.0,20.0 L 230.0,68.0 L 237.2,68.0 L 237.2,46.4 L 254.0,46.4 L 254.0,39.2 L 237.2,39.2 L 237.2,27.2 L 258.8,27.2 L 258.8,20.0 Z" fill="black"/>
  <!-- (space) -->
  <!-- V -->
  <path d="M 280.4,20.0 L 293.6,68.0 L 303.2,68.0 L 316.4,20.0 L 308.6,20.0 L 298.4,60.8 L 288.2,20.0 Z" fill="black"/>
  <!-- E -->
  <path d="M 320.0,20.0 L 320.0,68.0 L 348.8,68.0 L 348.8,60.8 L 327.2,60.8 L 327.2,46.4 L 344.0,46.4 L 344.0,39.2 L 327.2,39.2 L 327.2,27.2 L 348.8,27.2 L 348.8,20.0 Z" fill="black"/>
  <!-- R -->
  <path d="M 352.4,20.0 L 352.4,68.0 L 359.6,68.0 L 359.6,48.8 L 369.2,48.8 L 378.8,68.0 L 387.2,68.0 L 376.4,47.6 Q 385.4,45.2 385.4,34.4 Q 385.4,20.0 373.4,20.0 Z M 359.6,27.2 L 359.6,41.6 L 372.2,41.6 Q 378.2,41.6 378.2,34.4 Q 378.2,27.2 372.2,27.2 Z" fill="black"/>
  <!-- S -->
  <path d="M 419.6,27.2 L 419.6,20.0 L 399.8,20.0 Q 390.8,20.0 390.8,30.8 Q 390.8,41.6 399.8,41.6 L 412.4,41.6 Q 416.0,41.6 416.0,47.6 Q 416.0,53.6 412.4,53.6 L 412.4,60.8 L 390.8,60.8 L 390.8,68.0 L 413.6,68.0 Q 423.2,68.0 423.2,57.2 Q 423.2,46.4 413.6,46.4 L 399.8,46.4 Q 394.4,46.4 394.4,39.2 L 394.4,32.0 Q 394.4,27.2 399.8,27.2 Z" fill="black"/>
  <!-- E -->
  <path d="M 426.8,20.0 L 426.8,68.0 L 455.6,68.0 L 455.6,60.8 L 434.0,60.8 L 434.0,46.4 L 450.8,46.4 L 450.8,39.2 L 434.0,39.2 L 434.0,27.2 L 455.6,27.2 L 455.6,20.0 Z" fill="black"/>
</svg>
