<?xml version="1.0" encoding="UTF-8"?>
<svg xmlns="http://www.w3.org/2000/svg" viewBox="0 0 1148 764"
     width="1148" height="764">
  <!--
    Book of Verse — Team Edition
    Full Cover Spread: Back + Spine + Front
    Trim: 7" + 1.33" + 7" = 15.33" x 10"
    With bleed (0.125" each side): 15.58" x 10.25"
    At 72 DPI: 1148px x 764px
    Cover: Black (#111111) cloth-over-board (buckram)
    Foil: Gloss Silver (#c0c0c0)
    Spine: Square, no raised bands
  -->

  <!-- Bleed area background -->
  <rect x="0" y="0" width="1148" height="764" fill="#e0e0e0"/>

  <!-- Full trim area -->
  <rect x="22" y="22" width="1104" height="720" fill="#111111"/>

  <!-- Back Cover panel -->
  <rect x="22" y="22" width="504" height="720" fill="#111111"/>

  <!-- Spine panel (slightly darker for definition) -->
  <rect x="526" y="22" width="96" height="720" fill="#080808"/>

  <!-- Front Cover panel -->
  <rect x="622" y="22" width="504" height="720" fill="#111111"/>

  <!-- ====== FRONT COVER ELEMENTS (Silver Foil) ====== -->

  <!-- V emblem on front cover (2.5" wide = 180px) -->
  <path d="M 784.0,162.0 L 823.6,162.0 L 879.4,273.6 L 924.4,187.2 L 892.0,162.0 L 964.0,162.0 L 874.0,342.0 Z" fill="#c0c0c0"/>

  <!-- Title: BOOK OF VERSE -->
  <text x="874" y="402"
        text-anchor="middle" fill="#c0c0c0"
        font-family="Georgia, 'Times New Roman', serif"
        font-size="36" font-weight="bold" letter-spacing="3">BOOK OF VERSE</text>

  <!-- Subtitle -->
  <text x="874" y="442"
        text-anchor="middle" fill="#c0c0c0" opacity="0.8"
        font-family="Arial, Helvetica, sans-serif"
        font-size="16" font-style="italic">The Verse Programming Language</text>

  <!-- ====== SPINE ELEMENTS (Silver Foil) ====== -->
  <!-- No raised bands — Team Edition has square/flat cloth spine -->

  <!-- V emblem on spine (top, 0.7" wide = 50px) -->
  <path d="M 549.0,60.0 L 560.0,60.0 L 575.5,91.0 L 588.0,67.0 L 579.0,60.0 L 599.0,60.0 L 574.0,110.0 Z" fill="#c0c0c0"/>

  <!-- Spine title (rotated, centered on spine) -->
  <g transform="translate(574, 382)">
    <text transform="rotate(90)" x="0" y="0"
          text-anchor="middle" fill="#c0c0c0"
          font-family="Georgia, 'Times New Roman', serif"
          font-size="16" font-weight="bold" letter-spacing="2">BOOK OF VERSE</text>
  </g>

  <!-- V emblem on spine (bottom, 0.7" wide = 50px) -->
  <path d="M 549.0,654.0 L 560.0,654.0 L 575.5,685.0 L 588.0,661.0 L 579.0,654.0 L 599.0,654.0 L 574.0,704.0 Z" fill="#c0c0c0"/>

  <!-- ====== BACK COVER ====== -->

  <text x="274" y="362"
        text-anchor="middle" fill="#c0c0c0" opacity="0.3"
        font-family="Arial, Helvetica, sans-serif" font-size="14">BACK COVER</text>
  <text x="274" y="387"
        text-anchor="middle" fill="#c0c0c0" opacity="0.2"
        font-family="Arial, Helvetica, sans-serif" font-size="11">(description or blind deboss pattern)</text>

  <!-- ====== DIMENSION LABELS ====== -->

  <line x1="22" y1="10" x2="526" y2="10" stroke="#888" stroke-width="0.5"/>
  <text x="274" y="8" text-anchor="middle"
        fill="#888" font-family="Arial, sans-serif" font-size="9">7" (Back)</text>

  <line x1="526" y1="10" x2="622" y2="10" stroke="#888" stroke-width="0.5"/>
  <text x="574" y="8" text-anchor="middle"
        fill="#888" font-family="Arial, sans-serif" font-size="9">1.33"</text>

  <line x1="622" y1="10" x2="1126" y2="10" stroke="#888" stroke-width="0.5"/>
  <text x="874" y="8" text-anchor="middle"
        fill="#888" font-family="Arial, sans-serif" font-size="9">7" (Front)</text>

  <!-- Edition label -->
  <text x="574" y="759" text-anchor="middle"
        fill="#888" font-family="Arial, sans-serif" font-size="10">
    Team Edition — Black Cloth (Buckram) + Silver Foil — Full Cover Spread</text>

</svg>
