<?xml version="1.0" encoding="UTF-8"?>
<svg xmlns="http://www.w3.org/2000/svg" viewBox="0 0 48 242"
     width="48" height="242">
  <!-- Foil Stamping Die — Spine Title — BOOK OF VERSE (rotated)
       Solid black on white. All text outlined (no live fonts).
       Book of Verse — Production Artwork -->
  <rect x="0" y="0" width="48" height="242" fill="white"/>
  <g transform="translate(48.0, 0) rotate(90)">
    <path d="M 12.0,12.0 L 12.0,36.0 L 22.5,36.0 Q 28.5,36.0 28.5,31.5 Q 28.5,27.0 23.4,26.4 L 23.4,26.1 Q 27.6,25.5 27.6,21.6 Q 27.6,16.5 22.5,16.5 L 22.5,12.0 Z M 15.6,15.6 L 15.6,22.8 L 21.6,22.8 Q 24.0,22.8 24.0,19.2 Q 24.0,15.6 21.6,15.6 Z M 15.6,26.4 L 15.6,32.4 L 21.9,32.4 Q 24.9,32.4 24.9,29.4 Q 24.9,26.4 21.9,26.4 Z" fill="black"/>
    <path d="M 39.6,12.0 Q 30.6,12.0 30.6,24.0 Q 30.6,36.0 39.6,36.0 Q 48.6,36.0 48.6,24.0 Q 48.6,12.0 39.6,12.0 Z M 39.6,15.6 Q 45.0,15.6 45.0,24.0 Q 45.0,32.4 39.6,32.4 Q 34.2,32.4 34.2,24.0 Q 34.2,15.6 39.6,15.6 Z" fill="black"/>
    <path d="M 59.4,12.0 Q 50.4,12.0 50.4,24.0 Q 50.4,36.0 59.4,36.0 Q 68.4,36.0 68.4,24.0 Q 68.4,12.0 59.4,12.0 Z M 59.4,15.6 Q 64.8,15.6 64.8,24.0 Q 64.8,32.4 59.4,32.4 Q 54.0,32.4 54.0,24.0 Q 54.0,15.6 59.4,15.6 Z" fill="black"/>
    <path d="M 70.2,12.0 L 70.2,36.0 L 73.8,36.0 L 73.8,26.4 L 81.6,36.0 L 86.4,36.0 L 77.7,25.2 L 85.8,12.0 L 81.0,12.0 L 73.8,22.8 L 73.8,12.0 Z" fill="black"/>
    <path d="M 106.2,12.0 Q 97.2,12.0 97.2,24.0 Q 97.2,36.0 106.2,36.0 Q 115.2,36.0 115.2,24.0 Q 115.2,12.0 106.2,12.0 Z M 106.2,15.6 Q 111.6,15.6 111.6,24.0 Q 111.6,32.4 106.2,32.4 Q 100.8,32.4 100.8,24.0 Q 100.8,15.6 106.2,15.6 Z" fill="black"/>
    <path d="M 117.0,12.0 L 117.0,36.0 L 120.6,36.0 L 120.6,25.2 L 129.0,25.2 L 129.0,21.6 L 120.6,21.6 L 120.6,15.6 L 131.4,15.6 L 131.4,12.0 Z" fill="black"/>
    <path d="M 142.2,12.0 L 148.8,36.0 L 153.6,36.0 L 160.2,12.0 L 156.3,12.0 L 151.2,32.4 L 146.1,12.0 Z" fill="black"/>
    <path d="M 162.0,12.0 L 162.0,36.0 L 176.4,36.0 L 176.4,32.4 L 165.6,32.4 L 165.6,25.2 L 174.0,25.2 L 174.0,21.6 L 165.6,21.6 L 165.6,15.6 L 176.4,15.6 L 176.4,12.0 Z" fill="black"/>
    <path d="M 178.2,12.0 L 178.2,36.0 L 181.8,36.0 L 181.8,26.4 L 186.6,26.4 L 191.4,36.0 L 195.6,36.0 L 190.2,25.8 Q 194.7,24.6 194.7,19.2 Q 194.7,12.0 188.7,12.0 Z M 181.8,15.6 L 181.8,22.8 L 188.1,22.8 Q 191.1,22.8 191.1,19.2 Q 191.1,15.6 188.1,15.6 Z" fill="black"/>
    <path d="M 211.8,15.6 L 211.8,12.0 L 201.9,12.0 Q 197.4,12.0 197.4,17.4 Q 197.4,22.8 201.9,22.8 L 208.2,22.8 Q 210.0,22.8 210.0,25.8 Q 210.0,28.8 208.2,28.8 L 208.2,32.4 L 197.4,32.4 L 197.4,36.0 L 208.8,36.0 Q 213.6,36.0 213.6,30.6 Q 213.6,25.2 208.8,25.2 L 201.9,25.2 Q 199.2,25.2 199.2,21.6 L 199.2,18.0 Q 199.2,15.6 201.9,15.6 Z" fill="black"/>
    <path d="M 215.4,12.0 L 215.4,36.0 L 229.8,36.0 L 229.8,32.4 L 219.0,32.4 L 219.0,25.2 L 227.4,25.2 L 227.4,21.6 L 219.0,21.6 L 219.0,15.6 L 229.8,15.6 L 229.8,12.0 Z" fill="black"/>
  </g>
</svg>