<?xml version="1.0" encoding="UTF-8"?>
<svg xmlns="http://www.w3.org/2000/svg" viewBox="0 0 521 54"
     width="521" height="54">
  <!-- Foil Stamping Die — Front Cover Subtitle
       Solid black on white. All text outlined (no live fonts).
       Book of Verse — Production Artwork -->
  <rect x="0" y="0" width="521" height="54" fill="white"/>
  <path d="M 16.0,16.0 L 16.0,19.4 L 21.9,19.4 L 21.9,38.4 L 25.2,38.4 L 25.2,19.4 L 31.1,19.4 L 31.1,16.0 Z" fill="black"/>
  <path d="M 32.8,16.0 L 32.8,38.4 L 36.2,38.4 L 36.2,28.3 L 44.0,28.3 L 44.0,38.4 L 47.4,38.4 L 47.4,16.0 L 44.0,16.0 L 44.0,25.0 L 36.2,25.0 L 36.2,16.0 Z" fill="black"/>
  <path d="M 49.0,16.0 L 49.0,38.4 L 62.5,38.4 L 62.5,35.0 L 52.4,35.0 L 52.4,28.3 L 60.2,28.3 L 60.2,25.0 L 52.4,25.0 L 52.4,19.4 L 62.5,19.4 L 62.5,16.0 Z" fill="black"/>
  <path d="M 72.6,16.0 L 78.7,38.4 L 83.2,38.4 L 89.4,16.0 L 85.7,16.0 L 81.0,35.0 L 76.2,16.0 Z" fill="black"/>
  <path d="M 91.0,16.0 L 91.0,38.4 L 104.5,38.4 L 104.5,35.0 L 94.4,35.0 L 94.4,28.3 L 102.2,28.3 L 102.2,25.0 L 94.4,25.0 L 94.4,19.4 L 104.5,19.4 L 104.5,16.0 Z" fill="black"/>
  <path d="M 106.2,16.0 L 106.2,38.4 L 109.5,38.4 L 109.5,29.4 L 114.0,29.4 L 118.5,38.4 L 122.4,38.4 L 117.4,28.9 Q 121.6,27.8 121.6,22.7 Q 121.6,16.0 116.0,16.0 Z M 109.5,19.4 L 109.5,26.1 L 115.4,26.1 Q 118.2,26.1 118.2,22.7 Q 118.2,19.4 115.4,19.4 Z" fill="black"/>
  <path d="M 137.5,19.4 L 137.5,16.0 L 128.3,16.0 Q 124.1,16.0 124.1,21.0 Q 124.1,26.1 128.3,26.1 L 134.2,26.1 Q 135.8,26.1 135.8,28.9 Q 135.8,31.7 134.2,31.7 L 134.2,35.0 L 124.1,35.0 L 124.1,38.4 L 134.7,38.4 Q 139.2,38.4 139.2,33.4 Q 139.2,28.3 134.7,28.3 L 128.3,28.3 Q 125.8,28.3 125.8,25.0 L 125.8,21.6 Q 125.8,19.4 128.3,19.4 Z" fill="black"/>
  <path d="M 140.9,16.0 L 140.9,38.4 L 154.3,38.4 L 154.3,35.0 L 144.2,35.0 L 144.2,28.3 L 152.1,28.3 L 152.1,25.0 L 144.2,25.0 L 144.2,19.4 L 154.3,19.4 L 154.3,16.0 Z" fill="black"/>
  <path d="M 164.4,16.0 L 164.4,38.4 L 167.8,38.4 L 167.8,29.4 L 174.2,29.4 Q 179.8,29.4 179.8,22.7 Q 179.8,16.0 174.2,16.0 Z M 167.8,19.4 L 167.8,26.1 L 173.6,26.1 Q 176.4,26.1 176.4,22.7 Q 176.4,19.4 173.6,19.4 Z" fill="black"/>
  <path d="M 181.5,16.0 L 181.5,38.4 L 184.8,38.4 L 184.8,29.4 L 189.3,29.4 L 193.8,38.4 L 197.7,38.4 L 192.7,28.9 Q 196.9,27.8 196.9,22.7 Q 196.9,16.0 191.3,16.0 Z M 184.8,19.4 L 184.8,26.1 L 190.7,26.1 Q 193.5,26.1 193.5,22.7 Q 193.5,19.4 190.7,19.4 Z" fill="black"/>
  <path d="M 207.8,16.0 Q 199.4,16.0 199.4,27.2 Q 199.4,38.4 207.8,38.4 Q 216.2,38.4 216.2,27.2 Q 216.2,16.0 207.8,16.0 Z M 207.8,19.4 Q 212.8,19.4 212.8,27.2 Q 212.8,35.0 207.8,35.0 Q 202.8,35.0 202.8,27.2 Q 202.8,19.4 207.8,19.4 Z" fill="black"/>
  <path d="M 226.3,16.0 Q 217.9,16.0 217.9,27.2 Q 217.9,38.4 226.3,38.4 Q 234.7,38.4 234.7,30.0 L 234.7,26.1 L 226.8,26.1 L 226.8,29.4 L 231.3,29.4 L 231.3,32.2 Q 231.3,35.0 226.3,35.0 Q 221.2,35.0 221.2,27.2 Q 221.2,19.4 226.3,19.4 Q 229.6,19.4 230.8,21.6 L 233.6,19.9 Q 231.9,16.0 226.3,16.0 Z" fill="black"/>
  <path d="M 236.4,16.0 L 236.4,38.4 L 239.7,38.4 L 239.7,29.4 L 244.2,29.4 L 248.7,38.4 L 252.6,38.4 L 247.6,28.9 Q 251.8,27.8 251.8,22.7 Q 251.8,16.0 246.2,16.0 Z M 239.7,19.4 L 239.7,26.1 L 245.6,26.1 Q 248.4,26.1 248.4,22.7 Q 248.4,19.4 245.6,19.4 Z" fill="black"/>
  <path d="M 254.3,38.4 L 260.4,16.0 L 264.9,16.0 L 271.1,38.4 L 267.4,38.4 L 266.0,33.4 L 259.3,33.4 L 257.9,38.4 Z M 260.2,30.0 L 265.2,30.0 L 262.7,20.5 Z" fill="black"/>
  <path d="M 272.8,16.0 L 272.8,38.4 L 276.1,38.4 L 276.1,22.7 L 280.6,32.8 L 282.8,32.8 L 287.3,22.7 L 287.3,38.4 L 290.7,38.4 L 290.7,16.0 L 287.3,16.0 L 281.7,28.3 L 276.1,16.0 Z" fill="black"/>
  <path d="M 292.4,16.0 L 292.4,38.4 L 295.7,38.4 L 295.7,22.7 L 300.2,32.8 L 302.4,32.8 L 306.9,22.7 L 306.9,38.4 L 310.3,38.4 L 310.3,16.0 L 306.9,16.0 L 301.3,28.3 L 295.7,16.0 Z" fill="black"/>
  <path d="M 312.0,16.0 L 312.0,19.4 L 316.2,19.4 L 316.2,35.0 L 312.0,35.0 L 312.0,38.4 L 323.7,38.4 L 323.7,35.0 L 319.5,35.0 L 319.5,19.4 L 323.7,19.4 L 323.7,16.0 Z" fill="black"/>
  <path d="M 325.4,16.0 L 325.4,38.4 L 328.8,38.4 L 328.8,22.2 L 337.2,38.4 L 340.5,38.4 L 340.5,16.0 L 337.2,16.0 L 337.2,32.2 L 328.8,16.0 Z" fill="black"/>
  <path d="M 350.6,16.0 Q 342.2,16.0 342.2,27.2 Q 342.2,38.4 350.6,38.4 Q 359.0,38.4 359.0,30.0 L 359.0,26.1 L 351.2,26.1 L 351.2,29.4 L 355.6,29.4 L 355.6,32.2 Q 355.6,35.0 350.6,35.0 Q 345.6,35.0 345.6,27.2 Q 345.6,19.4 350.6,19.4 Q 354.0,19.4 355.1,21.6 L 357.9,19.9 Q 356.2,16.0 350.6,16.0 Z" fill="black"/>
  <path d="M 369.1,16.0 L 369.1,38.4 L 382.5,38.4 L 382.5,35.0 L 372.4,35.0 L 372.4,16.0 Z" fill="black"/>
  <path d="M 384.2,38.4 L 390.4,16.0 L 394.8,16.0 L 401.0,38.4 L 397.4,38.4 L 396.0,33.4 L 389.2,33.4 L 387.8,38.4 Z M 390.1,30.0 L 395.1,30.0 L 392.6,20.5 Z" fill="black"/>
  <path d="M 402.7,16.0 L 402.7,38.4 L 406.0,38.4 L 406.0,22.2 L 414.4,38.4 L 417.8,38.4 L 417.8,16.0 L 414.4,16.0 L 414.4,32.2 L 406.0,16.0 Z" fill="black"/>
  <path d="M 427.9,16.0 Q 419.5,16.0 419.5,27.2 Q 419.5,38.4 427.9,38.4 Q 436.3,38.4 436.3,30.0 L 436.3,26.1 L 428.4,26.1 L 428.4,29.4 L 432.9,29.4 L 432.9,32.2 Q 432.9,35.0 427.9,35.0 Q 422.8,35.0 422.8,27.2 Q 422.8,19.4 427.9,19.4 Q 431.2,19.4 432.4,21.6 L 435.2,19.9 Q 433.5,16.0 427.9,16.0 Z" fill="black"/>
  <path d="M 438.0,16.0 L 438.0,32.8 Q 438.0,38.4 445.2,38.4 Q 452.5,38.4 452.5,32.8 L 452.5,16.0 L 449.2,16.0 L 449.2,32.2 Q 449.2,35.0 445.2,35.0 Q 441.3,35.0 441.3,32.2 L 441.3,16.0 Z" fill="black"/>
  <path d="M 454.2,38.4 L 460.4,16.0 L 464.8,16.0 L 471.0,38.4 L 467.4,38.4 L 466.0,33.4 L 459.2,33.4 L 457.8,38.4 Z M 460.1,30.0 L 465.1,30.0 L 462.6,20.5 Z" fill="black"/>
  <path d="M 481.1,16.0 Q 472.7,16.0 472.7,27.2 Q 472.7,38.4 481.1,38.4 Q 489.5,38.4 489.5,30.0 L 489.5,26.1 L 481.6,26.1 L 481.6,29.4 L 486.1,29.4 L 486.1,32.2 Q 486.1,35.0 481.1,35.0 Q 476.0,35.0 476.0,27.2 Q 476.0,19.4 481.1,19.4 Q 484.4,19.4 485.6,21.6 L 488.4,19.9 Q 486.7,16.0 481.1,16.0 Z" fill="black"/>
  <path d="M 491.2,16.0 L 491.2,38.4 L 504.6,38.4 L 504.6,35.0 L 494.5,35.0 L 494.5,28.3 L 502.4,28.3 L 502.4,25.0 L 494.5,25.0 L 494.5,19.4 L 504.6,19.4 L 504.6,16.0 Z" fill="black"/>
</svg>